<svg width="10" height="10" viewBox="0 0 10 10" fill="none" xmlns="http://www.w3.org/2000/svg">
<path d="M5.20672 7.94091L7.5711 9.43866C7.87335 9.62991 8.24835 9.34528 8.15872 8.99241L7.47585 6.30553C7.45656 6.23069 7.45878 6.15192 7.48227 6.07829C7.50575 6.00465 7.54954 5.93914 7.6086 5.88928L9.72885 4.12491C10.0071 3.89316 9.86385 3.43078 9.50572 3.40753L6.7371 3.22753C6.66255 3.22224 6.59105 3.19589 6.5309 3.15154C6.47075 3.1072 6.42444 3.04668 6.39735 2.97703L5.3646 0.376781C5.33648 0.302883 5.28656 0.239278 5.22146 0.1944C5.15636 0.149521 5.07916 0.125488 5.0001 0.125488C4.92103 0.125488 4.84383 0.149521 4.77873 0.1944C4.71364 0.239278 4.66372 0.302883 4.6356 0.376781L3.60285 2.97703C3.57581 3.04675 3.52952 3.10734 3.46937 3.15176C3.40922 3.19618 3.33768 3.22259 3.2631 3.22791L0.494473 3.40791C0.136723 3.43078 -0.00727702 3.89316 0.271348 4.12491L2.3916 5.88966C2.45059 5.93948 2.49434 6.00493 2.51782 6.07849C2.5413 6.15205 2.54356 6.23074 2.52435 6.30553L1.89135 8.79741C1.78372 9.22078 2.2341 9.56241 2.59635 9.33253L4.79385 7.94091C4.85561 7.90164 4.92728 7.88079 5.00047 7.88079C5.07366 7.88079 5.14533 7.90164 5.2071 7.94091H5.20672Z" fill="#475D30"/>
</svg>
