<svg width="41" height="20" viewBox="0 0 41 20" fill="none" xmlns="http://www.w3.org/2000/svg">
<path d="M15.5293 19.6765L40.6764 12.0662V15.7059C40.6764 17.8988 38.8987 19.6765 36.7058 19.6765H15.5293Z" fill="#FD6020"/>
<path d="M15.7734 1.0582C16.2577 1.0582 16.8115 1.13021 17.2266 1.41465V2.83652C16.8807 2.40987 16.3268 2.12559 15.7734 2.12559C14.6669 2.19695 13.7678 3.19211 13.8369 4.32969V4.47227C13.8371 5.60973 14.7362 6.46235 15.8428 6.4625C16.3962 6.4625 16.8807 6.17822 17.2266 5.75156V7.17441C16.7425 7.38767 16.2583 7.52982 15.7051 7.52988C13.9757 7.52988 12.5918 6.03613 12.5918 4.2584C12.5919 2.40981 13.9752 0.916304 15.7734 1.0582ZM26.6338 5.32481L28.2939 1.0582H29.54L26.9805 7.52988H26.3574L23.7979 1.0582H25.043L26.6338 5.32481ZM10.2402 0.916602C10.8627 0.916681 11.4856 1.20094 11.9697 1.62754L11.3467 2.48106C11.07 2.19662 10.7238 1.98301 10.3779 1.98301C9.96312 1.9122 9.61707 2.2675 9.54785 2.69395C9.54785 3.04945 9.75574 3.19181 10.4473 3.47617C11.8305 4.04496 12.1768 4.47177 12.2461 5.32481V5.53867C12.1769 6.67633 11.2776 7.52964 10.1709 7.45859C9.34082 7.45859 8.51075 7.0318 8.0957 6.24961L8.85645 5.46738C9.06396 5.96513 9.5482 6.32087 10.1016 6.3209H10.1709C10.5859 6.32083 11.001 5.89382 11.001 5.39609C11.0009 5.11187 10.8626 4.89862 10.6553 4.75645C10.3787 4.61428 10.1018 4.47211 9.8252 4.40098C8.71841 4.04543 8.37207 3.54726 8.37207 2.69395V2.62266C8.44144 1.62732 9.27193 0.845502 10.2402 0.916602ZM3.0459 1.0582C4.70593 1.12931 6.0201 2.55198 5.95117 4.2584C5.95109 5.18245 5.53604 6.03553 4.84473 6.67539C4.22221 7.17312 3.46105 7.45835 2.7002 7.38731H0.970703V1.0582H3.0459ZM7.61133 7.38731H6.43555V1.0582H7.61133V7.38731ZM33.4131 2.12559H31.2686V3.54746H33.3438V4.61387H31.2686V6.3209H33.4131V7.38731H30.0928V1.0582H33.4131V2.12559ZM35.9033 1.0582C37.2865 1.05825 38.0476 1.69845 38.0479 2.90684C38.117 3.83124 37.4941 4.61323 36.6641 4.75547L38.5322 7.38731H37.0791L35.4883 4.82676H35.3496V7.38731H34.1738V1.0582H35.9033ZM2.49219 2.12461H2.14648V6.3209H2.49219C3.04558 6.39201 3.66894 6.1784 4.08398 5.82285C4.49878 5.39624 4.70605 4.8269 4.70605 4.18711C4.70593 3.61849 4.49879 3.04916 4.08398 2.62266C3.66895 2.26724 3.04546 2.05353 2.49219 2.12461ZM35.3496 3.97422H35.6953C36.4562 3.97422 36.8027 3.61811 36.8027 2.97813C36.8025 2.40961 36.4559 2.0543 35.6953 2.0543H35.3496V3.97422Z" fill="white"/>
<path fill-rule="evenodd" clip-rule="evenodd" d="M20.7543 0.911865C19.0249 0.911865 17.5723 2.33405 17.5723 4.18289C17.5723 5.96062 18.9557 7.45391 20.7543 7.52502C22.5528 7.59613 23.9363 6.10284 24.0054 4.254C23.9363 2.40516 22.5528 0.911865 20.7543 0.911865V0.911865Z" fill="#FD6020"/>
</svg>
