<svg width="10" height="10" viewBox="0 0 10 10" fill="none" xmlns="http://www.w3.org/2000/svg">
<path d="M5.20672 7.94078L7.5711 9.43853C7.87335 9.62978 8.24835 9.34516 8.15872 8.99228L7.47585 6.30541C7.45656 6.23057 7.45878 6.1518 7.48227 6.07816C7.50575 6.00453 7.54954 5.93902 7.6086 5.88916L9.72885 4.12478C10.0071 3.89303 9.86385 3.43066 9.50572 3.40741L6.7371 3.22741C6.66255 3.22212 6.59105 3.19577 6.5309 3.15142C6.47075 3.10707 6.42444 3.04656 6.39735 2.97691L5.3646 0.376659C5.33648 0.302761 5.28656 0.239156 5.22146 0.194278C5.15636 0.149399 5.07916 0.125366 5.0001 0.125366C4.92103 0.125366 4.84383 0.149399 4.77873 0.194278C4.71364 0.239156 4.66372 0.302761 4.6356 0.376659L3.60285 2.97691C3.57581 3.04663 3.52952 3.10722 3.46937 3.15164C3.40922 3.19606 3.33768 3.22246 3.2631 3.22778L0.494473 3.40778C0.136723 3.43066 -0.00727702 3.89303 0.271348 4.12478L2.3916 5.88953C2.45059 5.93936 2.49434 6.00481 2.51782 6.07837C2.5413 6.15193 2.54356 6.23062 2.52435 6.30541L1.89135 8.79728C1.78372 9.22066 2.2341 9.56228 2.59635 9.33241L4.79385 7.94078C4.85561 7.90152 4.92728 7.88066 5.00047 7.88066C5.07366 7.88066 5.14533 7.90152 5.2071 7.94078H5.20672Z" fill="#475D30"/>
</svg>
