<svg width="10" height="10" viewBox="0 0 10 10" fill="none" xmlns="http://www.w3.org/2000/svg">
<path d="M5.08172 7.81554L7.4461 9.31329C7.74835 9.50454 8.12335 9.21992 8.03372 8.86704L7.35085 6.18017C7.33156 6.10532 7.33378 6.02655 7.35727 5.95292C7.38075 5.87928 7.42454 5.81377 7.4836 5.76392L9.60385 3.99954C9.8821 3.76779 9.73885 3.30541 9.38072 3.28216L6.6121 3.10216C6.53755 3.09688 6.46605 3.07053 6.4059 3.02618C6.34575 2.98183 6.29944 2.92131 6.27235 2.85166L5.2396 0.251415C5.21148 0.177517 5.16156 0.113912 5.09646 0.0690334C5.03136 0.0241547 4.95416 0.00012207 4.8751 0.00012207C4.79603 0.00012207 4.71883 0.0241547 4.65373 0.0690334C4.58864 0.113912 4.53872 0.177517 4.5106 0.251415L3.47785 2.85166C3.45081 2.92138 3.40452 2.98198 3.34437 3.0264C3.28422 3.07081 3.21268 3.09722 3.1381 3.10254L0.369473 3.28254C0.0117229 3.30541 -0.132277 3.76779 0.146348 3.99954L2.2666 5.76429C2.32559 5.81412 2.36934 5.87956 2.39282 5.95313C2.4163 6.02669 2.41856 6.10538 2.39935 6.18017L1.76635 8.67204C1.65872 9.09541 2.1091 9.43704 2.47135 9.20717L4.66885 7.81554C4.73061 7.77627 4.80228 7.75542 4.87547 7.75542C4.94866 7.75542 5.02033 7.77627 5.0821 7.81554H5.08172Z" fill="#CCCCCC"/>
</svg>
