<svg width="18" height="14" viewBox="0 0 18 14" fill="none" xmlns="http://www.w3.org/2000/svg">
<path d="M9 0.541046C2.75 0.541046 0.25 7.0001 0.25 7.0001C0.25 7.0001 2.75 13.4577 9 13.4577C15.25 13.4577 17.75 7.0001 17.75 7.0001C17.75 7.0001 15.25 0.541046 9 0.541046V0.541046Z" stroke="#1A1A1A" stroke-width="1.5" stroke-linecap="round" stroke-linejoin="round"/>
<path d="M9 10.125C9.8288 10.125 10.6237 9.79576 11.2097 9.20971C11.7958 8.62366 12.125 7.8288 12.125 7C12.125 6.1712 11.7958 5.37634 11.2097 4.79029C10.6237 4.20424 9.8288 3.875 9 3.875C8.1712 3.875 7.37634 4.20424 6.79029 4.79029C6.20424 5.37634 5.875 6.1712 5.875 7C5.875 7.8288 6.20424 8.62366 6.79029 9.20971C7.37634 9.79576 8.1712 10.125 9 10.125V10.125Z" stroke="#1A1A1A" stroke-width="1.5" stroke-linecap="round" stroke-linejoin="round"/>
</svg>
