<svg width="9" height="11" viewBox="0 0 9 11" fill="none" xmlns="http://www.w3.org/2000/svg">
<path d="M7.70833 5.04199H1.29167C0.785406 5.04199 0.375 5.4524 0.375 5.95866V9.16699C0.375 9.67325 0.785406 10.0837 1.29167 10.0837H7.70833C8.21459 10.0837 8.625 9.67325 8.625 9.16699V5.95866C8.625 5.4524 8.21459 5.04199 7.70833 5.04199Z" stroke="white" stroke-width="0.916667" stroke-linecap="round" stroke-linejoin="round"/>
<path d="M2.2085 5.04199V3.20866C2.2085 2.60087 2.44994 2.01798 2.87971 1.58821C3.30948 1.15843 3.89237 0.916992 4.50016 0.916992C5.10795 0.916992 5.69084 1.15843 6.12062 1.58821C6.55039 2.01798 6.79183 2.60087 6.79183 3.20866V5.04199" stroke="white" stroke-width="0.916667" stroke-linecap="round" stroke-linejoin="round"/>
</svg>
