<svg width="31" height="19" viewBox="0 0 31 19" fill="none" xmlns="http://www.w3.org/2000/svg">
<path d="M21.5586 0.657471C26.5148 0.657584 30.533 4.62744 30.5332 9.52466C30.5332 14.4221 26.5149 18.3927 21.5586 18.3928C19.3362 18.3928 17.3038 17.5928 15.7363 16.2708C14.1691 17.5923 12.1379 18.3928 9.91602 18.3928C4.95957 18.3928 0.941406 14.4221 0.941406 9.52466C0.941657 4.6274 4.95972 0.657471 9.91602 0.657471C12.1377 0.657511 14.1691 1.45721 15.7363 2.77856C17.3037 1.45669 19.3364 0.657471 21.5586 0.657471Z" fill="#ED0006"/>
<path d="M21.5586 0.657471C26.5149 0.657486 30.533 4.62738 30.5332 9.52466C30.5332 14.4221 26.515 18.3928 21.5586 18.3928C19.3364 18.3928 17.3047 17.5926 15.7373 16.2708C17.6659 14.6443 18.8906 12.2264 18.8906 9.52466C18.8905 6.82265 17.6663 4.404 15.7373 2.77759C17.3046 1.45619 19.3369 0.657471 21.5586 0.657471Z" fill="#F9A000"/>
<path d="M15.7363 2.77832C17.6655 4.4048 18.8906 6.8232 18.8906 9.52539C18.8905 12.2272 17.665 14.6441 15.7363 16.2705C13.8082 14.6441 12.5841 12.2267 12.584 9.52539C12.584 6.82362 13.8077 4.4048 15.7363 2.77832Z" fill="#FF5E00"/>
</svg>
